Coordinates
version=1
nRows=14
nColumns=24
inDegrees=yes

Units are S.I. units (second, meters, Newtons, ...)
Angles are in degrees.

endheader
time	pelvis_tilt	pelvis_list	pelvis_rotation	pelvis_tx	pelvis_ty	pelvis_tz	hip_flexion_r	hip_adduction_r	hip_rotation_r	knee_angle_r	ankle_angle_r	subtalar_angle_r	mtp_angle_r	hip_flexion_l	hip_adduction_l	hip_rotation_l	knee_angle_l	ankle_angle_l	subtalar_angle_l	mtp_angle_l	lumbar_extension	lumbar_bending	lumbar_rotation
      3.95500000	     11.25224280	     -3.45436633	     -5.58016761	     -0.76652743	      0.72062901	     -0.30841671	    -30.35665476	      0.25637526	     -7.53985614	    -16.68891623	     31.93956473	     27.01437087	      0.00000000	     21.05268606	     -3.16181249	     -8.34394979	    -14.93821686	     20.23114616	      5.75855609	      0.00000000	    -34.74723790	      3.03943674	     14.13492838
      3.96000000	     11.14273950	     -3.13374469	     -5.85767351	     -0.75752691	      0.72015671	     -0.30885497	    -30.18848335	     -0.41413400	     -7.46767873	    -18.11319357	     31.01376541	     27.17474575	      0.00000000	     20.98542593	     -2.85535196	     -8.66272211	    -15.52404963	     19.42133039	      4.56576961	      0.00000000	    -34.38434506	      2.63012974	     14.04009275
      3.96500000	     11.05964315	     -2.73078343	     -6.06294159	     -0.74854432	      0.71977836	     -0.30936147	    -29.96055252	     -1.11951131	     -7.47157043	    -19.68305257	     29.98609636	     27.10632015	      0.00000000	     20.90164435	     -2.44128747	     -8.92802493	    -16.17184157	     18.47985014	      3.50755993	      0.00000000	    -34.04830403	      2.16895624	     13.84503711
      3.97000000	     10.98230414	     -2.31768457	     -6.13225768	     -0.73958366	      0.71947867	     -0.31004596	    -29.69227165	     -1.76730660	     -7.56366828	    -21.31552207	     28.71519657	     27.02178379	      0.00000000	     20.83381436	     -1.94372021	     -8.90251895	    -16.87764012	     17.41382449	      2.26175311	      0.00000000	    -33.72486976	      1.78466704	     13.47258114
      3.97500000	     10.93025192	     -1.84253754	     -6.15604712	     -0.73066831	      0.71928200	     -0.31075239	    -29.36554301	     -2.43450933	     -7.65597900	    -23.07252461	     27.32880509	     26.65296147	      0.00000000	     20.76524860	     -1.38107113	     -8.92337260	    -17.66754965	     16.36078106	      1.27289048	      0.00000000	    -33.43791539	      1.34799984	     13.03914977
      3.98000000	     10.89578842	     -1.33388105	     -6.09739831	     -0.72180963	      0.71918738	     -0.31153547	    -28.98809586	     -3.08042393	     -7.77660802	    -24.92317147	     25.76630983	     26.07519476	      0.00000000	     20.69996175	     -0.75582231	     -8.86763456	    -18.51543630	     15.32477289	      0.38958547	      0.00000000	    -33.18371534	      0.91216357	     12.51970354
      3.98500000	     10.88260893	     -0.78745185	     -5.98162610	     -0.71302605	      0.71920623	     -0.31238734	    -28.55618993	     -3.72565903	     -7.92302846	    -26.86829500	     24.05299390	     25.25803952	      0.00000000	     20.62249751	     -0.06871421	     -8.75612749	    -19.39891133	     14.35202563	     -0.36089910	      0.00000000	    -32.97316681	      0.47025848	     11.92531559
      3.99000000	     10.89080797	     -0.20881474	     -5.80720580	     -0.70432952	      0.71933805	     -0.31329875	    -28.07263860	     -4.36442967	     -8.09331920	    -28.89942948	     22.18969050	     24.19946227	      0.00000000	     20.52733561	      0.67509930	     -8.59375017	    -20.30201495	     13.47891133	     -0.97978065	      0.00000000	    -32.81002435	      0.01979612	     11.27804266
      3.99500000	     10.93113086	      0.41810624	     -5.59306410	     -0.69571847	      0.71958293	     -0.31424496	    -27.55021732	     -5.02624301	     -8.30486574	    -31.00799563	     20.23938767	     22.86838590	      0.00000000	     20.40071322	      1.47893743	     -8.44752791	    -21.22354878	     12.75697043	     -1.39511930	      0.00000000	    -32.70453905	     -0.46355720	     10.59330492
      4.00000000	     10.96981207	      1.03527880	     -5.34437089	     -0.68722910	      0.71995111	     -0.31524261	    -26.95267858	     -5.64540472	     -8.46296056	    -33.16487692	     18.11826505	     21.29203273	      0.00000000	     20.24622351	      2.30629089	     -8.18598144	    -22.09728077	     12.16775338	     -1.83847340	      0.00000000	    -32.63307034	     -0.91128823	      9.86963799
      4.00500000	     11.02746839	      1.68021364	     -5.06988465	     -0.67885386	      0.72042328	     -0.31626790	    -26.30280150	     -6.28030234	     -8.64951787	    -35.37943252	     15.94992636	     19.47005981	      0.00000000	     20.05138493	      3.17230094	     -7.93033474	    -22.94063066	     11.75104607	     -2.11888117	      0.00000000	    -32.61170993	     -1.37586235	      9.14933487
      4.01000000	     11.09447853	      2.33284102	     -4.78160076	     -0.67059866	      0.72100097	     -0.31730079	    -25.59627339	     -6.90647800	     -8.81494795	    -37.62121912	     13.75697901	     17.39522712	      0.00000000	     19.81396857	      4.05735824	     -7.66135128	    -23.73510680	     11.50628963	     -2.30000893	      0.00000000	    -32.63155139	     -1.83884974	      8.43940966
      4.01500000	     11.16791544	      2.98471847	     -4.48986393	     -0.66246543	      0.72167457	     -0.31833109	    -24.83317990	     -7.52136795	     -8.94582884	    -39.87620848	     11.58597450	     15.10480427	      0.00000000	     19.52974589	      4.94838894	     -7.39439685	    -24.46633364	     11.44050790	     -2.39582355	      0.00000000	    -32.68820005	     -2.29506698	      7.74913900
      4.02000000	     11.25104007	      3.64007468	     -4.20776085	     -0.65445122	      0.72243867	     -0.31934472	    -24.01947641	     -8.14006259	     -9.04822342	    -42.13715043	      9.51231252	     12.64153942	      0.00000000	     19.18443393	      5.84518513	     -7.15147593	    -25.10915872	     11.54643290	     -2.42926591	      0.00000000	    -32.78288659	     -2.75368119	      7.08343516
